<svg xmlns="http://www.w3.org/2000/svg" xmlns:xlink="http://www.w3.org/1999/xlink" width="500" zoomAndPan="magnify" viewBox="0 0 375 374.999991" height="500" preserveAspectRatio="xMidYMid meet" version="1.0"><defs><g/><clipPath id="8930ee0346"><path d="M 12 35.910156 L 258 35.910156 L 258 218.910156 L 12 218.910156 Z M 12 35.910156 " clip-rule="nonzero"/></clipPath><clipPath id="ddf268ce81"><path d="M 197 35.910156 L 362.953125 35.910156 L 362.953125 218.910156 L 197 218.910156 Z M 197 35.910156 " clip-rule="nonzero"/></clipPath><clipPath id="33ee159974"><rect x="0" width="350" y="0" height="136"/></clipPath></defs><rect x="-37.5" width="450" fill="#ffffff" y="-37.499999" height="449.999989" fill-opacity="1"/><rect x="-37.5" width="450" fill="#ffffff" y="-37.499999" height="449.999989" fill-opacity="1"/><g clip-path="url(#8930ee0346)"><path fill="#0f73d1" d="M 139.460938 35.910156 L 12.015625 218.964844 L 144.417969 218.964844 L 182.914062 163.667969 L 170.132812 143.15625 L 132.820312 196.753906 L 54.542969 196.753906 L 138.765625 75.777344 L 231.105469 218.964844 L 257.980469 218.964844 Z M 139.460938 35.910156 " fill-opacity="1" fill-rule="nonzero"/></g><g clip-path="url(#ddf268ce81)"><path fill="#231f20" d="M 244.796875 35.910156 L 197.152344 104.347656 L 210.164062 124.523438 L 244.105469 75.777344 L 336.527344 218.964844 L 362.992188 218.964844 Z M 244.796875 35.910156 " fill-opacity="1" fill-rule="nonzero"/></g><g transform="matrix(1, 0, 0, 1, 11, 210)"><g clip-path="url(#33ee159974)"><g fill="#231f20" fill-opacity="1"><g transform="translate(0.951325, 106.881506)"><g><path d="M 21.5 -6.0625 C 21.4375 -4.976562 21.453125 -4.066406 21.546875 -3.328125 C 21.648438 -2.585938 21.703125 -1.984375 21.703125 -1.515625 C 21.703125 -0.835938 21.445312 -0.414062 20.9375 -0.25 C 20.4375 -0.0820312 19.210938 0 17.265625 0 L 12.921875 0 C 10.023438 0 7.988281 0.015625 6.8125 0.046875 C 5.632812 0.078125 5.046875 -0.101562 5.046875 -0.5 C 5.046875 -0.84375 5.429688 -1.484375 6.203125 -2.421875 C 6.984375 -3.367188 7.84375 -4.71875 8.78125 -6.46875 C 9.789062 -8.34375 10.628906 -9.96875 11.296875 -11.34375 C 11.972656 -12.726562 12.664062 -14.328125 13.375 -16.140625 C 14.082031 -17.960938 14.957031 -20.390625 16 -23.421875 C 17.039062 -26.453125 18.4375 -30.488281 20.1875 -35.53125 L 27.359375 -55.921875 C 27.691406 -57.066406 28.039062 -58.429688 28.40625 -60.015625 C 28.78125 -61.597656 29.003906 -63.128906 29.078125 -64.609375 C 29.140625 -65.753906 29.101562 -66.710938 28.96875 -67.484375 C 28.832031 -68.253906 28.765625 -68.878906 28.765625 -69.359375 C 28.765625 -69.960938 29.015625 -70.332031 29.515625 -70.46875 C 30.023438 -70.601562 31.085938 -70.671875 32.703125 -70.671875 L 36.546875 -70.671875 C 38.628906 -70.671875 40.359375 -70.582031 41.734375 -70.40625 C 43.117188 -70.238281 44.316406 -69.71875 45.328125 -68.84375 C 46.335938 -67.96875 47.347656 -66.554688 48.359375 -64.609375 C 49.367188 -62.660156 50.53125 -59.898438 51.84375 -56.328125 C 53.15625 -52.765625 54.785156 -48.191406 56.734375 -42.609375 L 66.53125 -14.640625 C 66.9375 -13.492188 67.507812 -12.128906 68.25 -10.546875 C 68.988281 -8.960938 69.863281 -7.429688 70.875 -5.953125 C 71.8125 -4.472656 72.613281 -3.34375 73.28125 -2.5625 C 73.957031 -1.789062 74.296875 -1.207031 74.296875 -0.8125 C 74.296875 -0.46875 73.976562 -0.226562 73.34375 -0.09375 C 72.707031 0.03125 71.613281 0.09375 70.0625 0.09375 C 69.113281 0.09375 67.96875 0.078125 66.625 0.046875 C 65.28125 0.015625 63.703125 0 61.890625 0 L 55.625 0 C 53.40625 0 51.804688 -0.046875 50.828125 -0.140625 C 49.847656 -0.242188 49.222656 -0.476562 48.953125 -0.84375 C 48.691406 -1.21875 48.59375 -1.789062 48.65625 -2.5625 C 48.726562 -3.34375 48.726562 -4.40625 48.65625 -5.75 C 48.65625 -7.164062 48.488281 -8.644531 48.15625 -10.1875 C 47.820312 -11.738281 47.484375 -13.085938 47.140625 -14.234375 L 46.4375 -16.25 C 46.238281 -16.988281 45.9375 -17.492188 45.53125 -17.765625 C 45.125 -18.035156 44.160156 -18.203125 42.640625 -18.265625 C 41.128906 -18.335938 38.59375 -18.375 35.03125 -18.375 C 31.53125 -18.375 29.019531 -18.335938 27.5 -18.265625 C 25.988281 -18.203125 25.046875 -18.050781 24.671875 -17.8125 C 24.304688 -17.582031 24.023438 -17.128906 23.828125 -16.453125 C 23.554688 -15.578125 23.132812 -14.265625 22.5625 -12.515625 C 21.988281 -10.765625 21.632812 -8.613281 21.5 -6.0625 Z M 35.03125 -27.453125 C 37.320312 -27.453125 38.953125 -27.550781 39.921875 -27.75 C 40.898438 -27.957031 41.390625 -28.632812 41.390625 -29.78125 C 41.390625 -30.59375 41.171875 -31.738281 40.734375 -33.21875 C 40.296875 -34.695312 39.671875 -36.613281 38.859375 -38.96875 C 37.921875 -41.863281 37.179688 -44.035156 36.640625 -45.484375 C 36.109375 -46.929688 35.601562 -47.65625 35.125 -47.65625 C 34.65625 -47.65625 34.132812 -46.929688 33.5625 -45.484375 C 32.988281 -44.035156 32.234375 -41.863281 31.296875 -38.96875 C 30.484375 -36.613281 29.859375 -34.695312 29.421875 -33.21875 C 28.984375 -31.738281 28.765625 -30.59375 28.765625 -29.78125 C 28.765625 -28.632812 29.253906 -27.957031 30.234375 -27.75 C 31.210938 -27.550781 32.8125 -27.453125 35.03125 -27.453125 Z M 35.03125 -27.453125 "/></g></g></g><g fill="#231f20" fill-opacity="1"><g transform="translate(76.038348, 106.881506)"><g><path d="M 62.390625 -11.515625 C 62.253906 -9.222656 62.050781 -7.351562 61.78125 -5.90625 C 61.507812 -4.457031 60.921875 -3.328125 60.015625 -2.515625 C 59.109375 -1.710938 57.660156 -1.125 55.671875 -0.75 C 53.691406 -0.382812 50.914062 -0.164062 47.34375 -0.09375 C 43.78125 -0.03125 39.207031 0 33.625 0 C 29.914062 0 26.75 0.015625 24.125 0.046875 C 21.5 0.078125 19.242188 0.09375 17.359375 0.09375 C 14.203125 0.09375 12.066406 -0.0195312 10.953125 -0.25 C 9.835938 -0.488281 9.28125 -1.007812 9.28125 -1.8125 C 9.28125 -2.351562 9.414062 -2.992188 9.6875 -3.734375 C 9.957031 -4.472656 10.257812 -5.414062 10.59375 -6.5625 C 11 -8.113281 11.285156 -9.710938 11.453125 -11.359375 C 11.617188 -13.003906 11.703125 -14.367188 11.703125 -15.453125 L 11.703125 -55.328125 C 11.703125 -56.398438 11.617188 -57.742188 11.453125 -59.359375 C 11.285156 -60.972656 11 -62.585938 10.59375 -64.203125 C 10.125 -65.679688 9.703125 -66.859375 9.328125 -67.734375 C 8.960938 -68.609375 8.78125 -69.285156 8.78125 -69.765625 C 8.78125 -70.234375 9.03125 -70.515625 9.53125 -70.609375 C 10.039062 -70.710938 10.9375 -70.765625 12.21875 -70.765625 C 13.15625 -70.765625 14.347656 -70.75 15.796875 -70.71875 C 17.242188 -70.6875 19.007812 -70.671875 21.09375 -70.671875 C 23.1875 -70.671875 24.953125 -70.6875 26.390625 -70.71875 C 27.835938 -70.75 29.035156 -70.765625 29.984375 -70.765625 C 31.328125 -70.765625 32.234375 -70.710938 32.703125 -70.609375 C 33.179688 -70.515625 33.421875 -70.234375 33.421875 -69.765625 C 33.421875 -69.285156 33.234375 -68.609375 32.859375 -67.734375 C 32.492188 -66.859375 32.070312 -65.679688 31.59375 -64.203125 C 31.125 -62.585938 30.804688 -60.972656 30.640625 -59.359375 C 30.472656 -57.742188 30.390625 -56.398438 30.390625 -55.328125 L 30.390625 -32.203125 C 30.390625 -26.410156 30.421875 -21.929688 30.484375 -18.765625 C 30.554688 -15.609375 30.773438 -13.335938 31.140625 -11.953125 C 31.515625 -10.578125 32.140625 -9.753906 33.015625 -9.484375 C 33.890625 -9.210938 35.097656 -9.078125 36.640625 -9.078125 L 43 -9.078125 C 46.769531 -9.078125 49.898438 -9.679688 52.390625 -10.890625 C 54.878906 -12.109375 56.863281 -13.492188 58.34375 -15.046875 C 60.09375 -16.929688 61.269531 -18.3125 61.875 -19.1875 C 62.488281 -20.0625 62.796875 -19.890625 62.796875 -18.671875 C 62.796875 -18.066406 62.757812 -17.191406 62.6875 -16.046875 C 62.625 -14.898438 62.523438 -13.390625 62.390625 -11.515625 Z M 62.390625 -11.515625 "/></g></g></g><g fill="#231f20" fill-opacity="1"><g transform="translate(136.390342, 106.881506)"><g/></g></g><g fill="#231f20" fill-opacity="1"><g transform="translate(174.337008, 106.881506)"><g><path d="M 21.5 -6.0625 C 21.4375 -4.976562 21.453125 -4.066406 21.546875 -3.328125 C 21.648438 -2.585938 21.703125 -1.984375 21.703125 -1.515625 C 21.703125 -0.835938 21.445312 -0.414062 20.9375 -0.25 C 20.4375 -0.0820312 19.210938 0 17.265625 0 L 12.921875 0 C 10.023438 0 7.988281 0.015625 6.8125 0.046875 C 5.632812 0.078125 5.046875 -0.101562 5.046875 -0.5 C 5.046875 -0.84375 5.429688 -1.484375 6.203125 -2.421875 C 6.984375 -3.367188 7.84375 -4.71875 8.78125 -6.46875 C 9.789062 -8.34375 10.628906 -9.96875 11.296875 -11.34375 C 11.972656 -12.726562 12.664062 -14.328125 13.375 -16.140625 C 14.082031 -17.960938 14.957031 -20.390625 16 -23.421875 C 17.039062 -26.453125 18.4375 -30.488281 20.1875 -35.53125 L 27.359375 -55.921875 C 27.691406 -57.066406 28.039062 -58.429688 28.40625 -60.015625 C 28.78125 -61.597656 29.003906 -63.128906 29.078125 -64.609375 C 29.140625 -65.753906 29.101562 -66.710938 28.96875 -67.484375 C 28.832031 -68.253906 28.765625 -68.878906 28.765625 -69.359375 C 28.765625 -69.960938 29.015625 -70.332031 29.515625 -70.46875 C 30.023438 -70.601562 31.085938 -70.671875 32.703125 -70.671875 L 36.546875 -70.671875 C 38.628906 -70.671875 40.359375 -70.582031 41.734375 -70.40625 C 43.117188 -70.238281 44.316406 -69.71875 45.328125 -68.84375 C 46.335938 -67.96875 47.347656 -66.554688 48.359375 -64.609375 C 49.367188 -62.660156 50.53125 -59.898438 51.84375 -56.328125 C 53.15625 -52.765625 54.785156 -48.191406 56.734375 -42.609375 L 66.53125 -14.640625 C 66.9375 -13.492188 67.507812 -12.128906 68.25 -10.546875 C 68.988281 -8.960938 69.863281 -7.429688 70.875 -5.953125 C 71.8125 -4.472656 72.613281 -3.34375 73.28125 -2.5625 C 73.957031 -1.789062 74.296875 -1.207031 74.296875 -0.8125 C 74.296875 -0.46875 73.976562 -0.226562 73.34375 -0.09375 C 72.707031 0.03125 71.613281 0.09375 70.0625 0.09375 C 69.113281 0.09375 67.96875 0.078125 66.625 0.046875 C 65.28125 0.015625 63.703125 0 61.890625 0 L 55.625 0 C 53.40625 0 51.804688 -0.046875 50.828125 -0.140625 C 49.847656 -0.242188 49.222656 -0.476562 48.953125 -0.84375 C 48.691406 -1.21875 48.59375 -1.789062 48.65625 -2.5625 C 48.726562 -3.34375 48.726562 -4.40625 48.65625 -5.75 C 48.65625 -7.164062 48.488281 -8.644531 48.15625 -10.1875 C 47.820312 -11.738281 47.484375 -13.085938 47.140625 -14.234375 L 46.4375 -16.25 C 46.238281 -16.988281 45.9375 -17.492188 45.53125 -17.765625 C 45.125 -18.035156 44.160156 -18.203125 42.640625 -18.265625 C 41.128906 -18.335938 38.59375 -18.375 35.03125 -18.375 C 31.53125 -18.375 29.019531 -18.335938 27.5 -18.265625 C 25.988281 -18.203125 25.046875 -18.050781 24.671875 -17.8125 C 24.304688 -17.582031 24.023438 -17.128906 23.828125 -16.453125 C 23.554688 -15.578125 23.132812 -14.265625 22.5625 -12.515625 C 21.988281 -10.765625 21.632812 -8.613281 21.5 -6.0625 Z M 35.03125 -27.453125 C 37.320312 -27.453125 38.953125 -27.550781 39.921875 -27.75 C 40.898438 -27.957031 41.390625 -28.632812 41.390625 -29.78125 C 41.390625 -30.59375 41.171875 -31.738281 40.734375 -33.21875 C 40.296875 -34.695312 39.671875 -36.613281 38.859375 -38.96875 C 37.921875 -41.863281 37.179688 -44.035156 36.640625 -45.484375 C 36.109375 -46.929688 35.601562 -47.65625 35.125 -47.65625 C 34.65625 -47.65625 34.132812 -46.929688 33.5625 -45.484375 C 32.988281 -44.035156 32.234375 -41.863281 31.296875 -38.96875 C 30.484375 -36.613281 29.859375 -34.695312 29.421875 -33.21875 C 28.984375 -31.738281 28.765625 -30.59375 28.765625 -29.78125 C 28.765625 -28.632812 29.253906 -27.957031 30.234375 -27.75 C 31.210938 -27.550781 32.8125 -27.453125 35.03125 -27.453125 Z M 35.03125 -27.453125 "/></g></g></g><g fill="#231f20" fill-opacity="1"><g transform="translate(249.424032, 106.881506)"><g><path d="M 62.390625 -11.515625 C 62.253906 -9.222656 62.050781 -7.351562 61.78125 -5.90625 C 61.507812 -4.457031 60.921875 -3.328125 60.015625 -2.515625 C 59.109375 -1.710938 57.660156 -1.125 55.671875 -0.75 C 53.691406 -0.382812 50.914062 -0.164062 47.34375 -0.09375 C 43.78125 -0.03125 39.207031 0 33.625 0 C 29.914062 0 26.75 0.015625 24.125 0.046875 C 21.5 0.078125 19.242188 0.09375 17.359375 0.09375 C 14.203125 0.09375 12.066406 -0.0195312 10.953125 -0.25 C 9.835938 -0.488281 9.28125 -1.007812 9.28125 -1.8125 C 9.28125 -2.351562 9.414062 -2.992188 9.6875 -3.734375 C 9.957031 -4.472656 10.257812 -5.414062 10.59375 -6.5625 C 11 -8.113281 11.285156 -9.710938 11.453125 -11.359375 C 11.617188 -13.003906 11.703125 -14.367188 11.703125 -15.453125 L 11.703125 -55.328125 C 11.703125 -56.398438 11.617188 -57.742188 11.453125 -59.359375 C 11.285156 -60.972656 11 -62.585938 10.59375 -64.203125 C 10.125 -65.679688 9.703125 -66.859375 9.328125 -67.734375 C 8.960938 -68.609375 8.78125 -69.285156 8.78125 -69.765625 C 8.78125 -70.234375 9.03125 -70.515625 9.53125 -70.609375 C 10.039062 -70.710938 10.9375 -70.765625 12.21875 -70.765625 C 13.15625 -70.765625 14.347656 -70.75 15.796875 -70.71875 C 17.242188 -70.6875 19.007812 -70.671875 21.09375 -70.671875 C 23.1875 -70.671875 24.953125 -70.6875 26.390625 -70.71875 C 27.835938 -70.75 29.035156 -70.765625 29.984375 -70.765625 C 31.328125 -70.765625 32.234375 -70.710938 32.703125 -70.609375 C 33.179688 -70.515625 33.421875 -70.234375 33.421875 -69.765625 C 33.421875 -69.285156 33.234375 -68.609375 32.859375 -67.734375 C 32.492188 -66.859375 32.070312 -65.679688 31.59375 -64.203125 C 31.125 -62.585938 30.804688 -60.972656 30.640625 -59.359375 C 30.472656 -57.742188 30.390625 -56.398438 30.390625 -55.328125 L 30.390625 -32.203125 C 30.390625 -26.410156 30.421875 -21.929688 30.484375 -18.765625 C 30.554688 -15.609375 30.773438 -13.335938 31.140625 -11.953125 C 31.515625 -10.578125 32.140625 -9.753906 33.015625 -9.484375 C 33.890625 -9.210938 35.097656 -9.078125 36.640625 -9.078125 L 43 -9.078125 C 46.769531 -9.078125 49.898438 -9.679688 52.390625 -10.890625 C 54.878906 -12.109375 56.863281 -13.492188 58.34375 -15.046875 C 60.09375 -16.929688 61.269531 -18.3125 61.875 -19.1875 C 62.488281 -20.0625 62.796875 -19.890625 62.796875 -18.671875 C 62.796875 -18.066406 62.757812 -17.191406 62.6875 -16.046875 C 62.625 -14.898438 62.523438 -13.390625 62.390625 -11.515625 Z M 62.390625 -11.515625 "/></g></g></g><g fill="#231f20" fill-opacity="1"><g transform="translate(309.776025, 106.881506)"><g><path d="M 30.484375 -55.328125 L 30.484375 -15.453125 C 30.484375 -14.367188 30.550781 -13.003906 30.6875 -11.359375 C 30.820312 -9.710938 31.125 -8.113281 31.59375 -6.5625 C 32.070312 -5.082031 32.492188 -3.90625 32.859375 -3.03125 C 33.234375 -2.15625 33.421875 -1.484375 33.421875 -1.015625 C 33.421875 -0.535156 33.164062 -0.226562 32.65625 -0.09375 C 32.15625 0.03125 31.226562 0.09375 29.875 0.09375 C 28.9375 0.09375 27.742188 0.078125 26.296875 0.046875 C 24.847656 0.015625 23.113281 0 21.09375 0 C 19.082031 0 17.351562 0.015625 15.90625 0.046875 C 14.457031 0.078125 13.257812 0.09375 12.3125 0.09375 C 11.03125 0.09375 10.117188 0.03125 9.578125 -0.09375 C 9.046875 -0.226562 8.78125 -0.535156 8.78125 -1.015625 C 8.78125 -1.484375 8.960938 -2.15625 9.328125 -3.03125 C 9.703125 -3.90625 10.125 -5.082031 10.59375 -6.5625 C 11.070312 -8.113281 11.394531 -9.710938 11.5625 -11.359375 C 11.726562 -13.003906 11.8125 -14.367188 11.8125 -15.453125 L 11.8125 -55.328125 C 11.8125 -56.398438 11.726562 -57.742188 11.5625 -59.359375 C 11.394531 -60.972656 11.070312 -62.554688 10.59375 -64.109375 C 10.125 -65.648438 9.703125 -66.84375 9.328125 -67.6875 C 8.960938 -68.53125 8.78125 -69.1875 8.78125 -69.65625 C 8.78125 -70.125 9.046875 -70.425781 9.578125 -70.5625 C 10.117188 -70.695312 11.03125 -70.765625 12.3125 -70.765625 C 13.257812 -70.765625 14.457031 -70.75 15.90625 -70.71875 C 17.351562 -70.6875 19.082031 -70.671875 21.09375 -70.671875 C 23.113281 -70.671875 24.847656 -70.6875 26.296875 -70.71875 C 27.742188 -70.75 28.9375 -70.765625 29.875 -70.765625 C 31.226562 -70.765625 32.15625 -70.695312 32.65625 -70.5625 C 33.164062 -70.425781 33.421875 -70.125 33.421875 -69.65625 C 33.421875 -69.1875 33.234375 -68.53125 32.859375 -67.6875 C 32.492188 -66.84375 32.070312 -65.648438 31.59375 -64.109375 C 31.125 -62.554688 30.820312 -60.972656 30.6875 -59.359375 C 30.550781 -57.742188 30.484375 -56.398438 30.484375 -55.328125 Z M 30.484375 -55.328125 "/></g></g></g></g></g></svg>