<svg xmlns="http://www.w3.org/2000/svg" xmlns:xlink="http://www.w3.org/1999/xlink" width="2080" zoomAndPan="magnify" viewBox="0 0 1560 404.99999" height="540" preserveAspectRatio="xMidYMid meet" version="1.0"><defs><g/><clipPath id="6765ceccdb"><path d="M 65.113281 38.964844 L 494 38.964844 L 494 357.714844 L 65.113281 357.714844 Z M 65.113281 38.964844 " clip-rule="nonzero"/></clipPath><clipPath id="9f7f5aa0a7"><path d="M 387 38.964844 L 675.613281 38.964844 L 675.613281 357.714844 L 387 357.714844 Z M 387 38.964844 " clip-rule="nonzero"/></clipPath><clipPath id="4692ffcb45"><rect x="0" width="872" y="0" height="315"/></clipPath><clipPath id="aa551171c8"><rect x="0" width="803" y="0" height="105"/></clipPath><clipPath id="973c572fa8"><rect x="0" width="734" y="0" height="71"/></clipPath></defs><g clip-path="url(#6765ceccdb)"><path fill="#0f73d1" d="M 286.898438 38.964844 L 65.21875 357.378906 L 295.523438 357.378906 L 362.484375 261.195312 L 340.253906 225.515625 L 275.347656 318.742188 L 139.1875 318.742188 L 285.691406 108.3125 L 446.308594 357.378906 L 493.054688 357.378906 Z M 286.898438 38.964844 " fill-opacity="1" fill-rule="nonzero"/></g><g clip-path="url(#9f7f5aa0a7)"><path fill="#231f20" d="M 470.125 38.964844 L 387.25 158.003906 L 409.882812 193.105469 L 468.917969 108.3125 L 629.683594 357.378906 L 675.714844 357.378906 Z M 470.125 38.964844 " fill-opacity="1" fill-rule="nonzero"/></g><g transform="matrix(1, 0, 0, 1, 688, 29)"><g clip-path="url(#4692ffcb45)"><g fill="#231f20" fill-opacity="1"><g transform="translate(0.744134, 250.089162)"><g><path d="M 49.65625 -13.984375 C 49.5 -11.503906 49.535156 -9.40625 49.765625 -7.6875 C 50.003906 -5.976562 50.125 -4.582031 50.125 -3.5 C 50.125 -1.945312 49.539062 -0.972656 48.375 -0.578125 C 47.207031 -0.191406 44.375 0 39.875 0 L 29.84375 0 C 23.15625 0 18.453125 0.0351562 15.734375 0.109375 C 13.015625 0.191406 11.65625 -0.234375 11.65625 -1.171875 C 11.65625 -1.941406 12.546875 -3.414062 14.328125 -5.59375 C 16.117188 -7.769531 18.101562 -10.878906 20.28125 -14.921875 C 22.613281 -19.273438 24.554688 -23.046875 26.109375 -26.234375 C 27.660156 -29.421875 29.253906 -33.109375 30.890625 -37.296875 C 32.523438 -41.492188 34.546875 -47.085938 36.953125 -54.078125 C 39.359375 -61.078125 42.582031 -70.410156 46.625 -82.078125 L 63.1875 -129.171875 C 63.957031 -131.804688 64.769531 -134.953125 65.625 -138.609375 C 66.488281 -142.265625 67 -145.800781 67.15625 -149.21875 C 67.300781 -151.863281 67.21875 -154.078125 66.90625 -155.859375 C 66.601562 -157.648438 66.453125 -159.085938 66.453125 -160.171875 C 66.453125 -161.578125 67.035156 -162.429688 68.203125 -162.734375 C 69.367188 -163.046875 71.816406 -163.203125 75.546875 -163.203125 L 84.40625 -163.203125 C 89.21875 -163.203125 93.21875 -163.007812 96.40625 -162.625 C 99.59375 -162.238281 102.351562 -161.035156 104.6875 -159.015625 C 107.019531 -156.992188 109.347656 -153.726562 111.671875 -149.21875 C 114.003906 -144.707031 116.6875 -138.332031 119.71875 -130.09375 C 122.75 -121.863281 126.519531 -111.296875 131.03125 -98.390625 L 153.65625 -33.8125 C 154.582031 -31.164062 155.898438 -28.015625 157.609375 -24.359375 C 159.316406 -20.710938 161.335938 -17.175781 163.671875 -13.75 C 165.847656 -10.332031 167.710938 -7.726562 169.265625 -5.9375 C 170.828125 -4.15625 171.609375 -2.796875 171.609375 -1.859375 C 171.609375 -1.085938 170.867188 -0.546875 169.390625 -0.234375 C 167.910156 0.078125 165.382812 0.234375 161.8125 0.234375 C 159.632812 0.234375 156.988281 0.191406 153.875 0.109375 C 150.769531 0.0351562 147.117188 0 142.921875 0 L 128.46875 0 C 123.34375 0 119.648438 -0.113281 117.390625 -0.34375 C 115.140625 -0.582031 113.703125 -1.128906 113.078125 -1.984375 C 112.453125 -2.835938 112.21875 -4.15625 112.375 -5.9375 C 112.53125 -7.726562 112.53125 -10.179688 112.375 -13.296875 C 112.375 -16.554688 111.984375 -19.972656 111.203125 -23.546875 C 110.429688 -27.117188 109.660156 -30.226562 108.890625 -32.875 L 107.25 -37.53125 C 106.78125 -39.25 106.078125 -40.414062 105.140625 -41.03125 C 104.210938 -41.65625 102 -42.046875 98.5 -42.203125 C 95.007812 -42.359375 89.144531 -42.4375 80.90625 -42.4375 C 72.820312 -42.4375 67.03125 -42.359375 63.53125 -42.203125 C 60.03125 -42.046875 57.851562 -41.695312 57 -41.15625 C 56.144531 -40.613281 55.488281 -39.5625 55.03125 -38 C 54.40625 -35.976562 53.429688 -32.945312 52.109375 -28.90625 C 50.785156 -24.863281 49.96875 -19.890625 49.65625 -13.984375 Z M 80.90625 -63.421875 C 86.1875 -63.421875 89.953125 -63.648438 92.203125 -64.109375 C 94.460938 -64.578125 95.59375 -66.132812 95.59375 -68.78125 C 95.59375 -70.644531 95.085938 -73.285156 94.078125 -76.703125 C 93.066406 -80.128906 91.628906 -84.5625 89.765625 -90 C 87.585938 -96.6875 85.875 -101.695312 84.625 -105.03125 C 83.382812 -108.375 82.222656 -110.046875 81.140625 -110.046875 C 80.046875 -110.046875 78.835938 -108.375 77.515625 -105.03125 C 76.203125 -101.695312 74.457031 -96.6875 72.28125 -90 C 70.414062 -84.5625 68.976562 -80.128906 67.96875 -76.703125 C 66.957031 -73.285156 66.453125 -70.644531 66.453125 -68.78125 C 66.453125 -66.132812 67.578125 -64.578125 69.828125 -64.109375 C 72.085938 -63.648438 75.78125 -63.421875 80.90625 -63.421875 Z M 80.90625 -63.421875 "/></g></g></g><g fill="#231f20" fill-opacity="1"><g transform="translate(174.207144, 250.089162)"><g><path d="M 144.09375 -26.578125 C 143.78125 -21.296875 143.3125 -16.984375 142.6875 -13.640625 C 142.070312 -10.296875 140.710938 -7.691406 138.609375 -5.828125 C 136.515625 -3.960938 133.171875 -2.601562 128.578125 -1.75 C 123.992188 -0.894531 117.582031 -0.390625 109.34375 -0.234375 C 101.113281 -0.078125 90.546875 0 77.640625 0 C 69.085938 0 61.78125 0.0351562 55.71875 0.109375 C 49.65625 0.191406 44.453125 0.234375 40.109375 0.234375 C 32.796875 0.234375 27.859375 -0.0351562 25.296875 -0.578125 C 22.734375 -1.128906 21.453125 -2.335938 21.453125 -4.203125 C 21.453125 -5.441406 21.757812 -6.914062 22.375 -8.625 C 23 -10.332031 23.703125 -12.507812 24.484375 -15.15625 C 25.410156 -18.726562 26.066406 -22.414062 26.453125 -26.21875 C 26.847656 -30.03125 27.046875 -33.179688 27.046875 -35.671875 L 27.046875 -127.765625 C 27.046875 -130.253906 26.847656 -133.363281 26.453125 -137.09375 C 26.066406 -140.820312 25.410156 -144.550781 24.484375 -148.28125 C 23.390625 -151.707031 22.414062 -154.429688 21.5625 -156.453125 C 20.707031 -158.472656 20.28125 -160.023438 20.28125 -161.109375 C 20.28125 -162.203125 20.863281 -162.863281 22.03125 -163.09375 C 23.195312 -163.320312 25.257812 -163.4375 28.21875 -163.4375 C 30.382812 -163.4375 33.140625 -163.394531 36.484375 -163.3125 C 39.828125 -163.238281 43.910156 -163.203125 48.734375 -163.203125 C 53.546875 -163.203125 57.625 -163.238281 60.96875 -163.3125 C 64.3125 -163.394531 67.070312 -163.4375 69.25 -163.4375 C 72.351562 -163.4375 74.445312 -163.320312 75.53125 -163.09375 C 76.625 -162.863281 77.171875 -162.203125 77.171875 -161.109375 C 77.171875 -160.023438 76.742188 -158.472656 75.890625 -156.453125 C 75.035156 -154.429688 74.066406 -151.707031 72.984375 -148.28125 C 71.890625 -144.550781 71.148438 -140.820312 70.765625 -137.09375 C 70.378906 -133.363281 70.1875 -130.253906 70.1875 -127.765625 L 70.1875 -74.375 C 70.1875 -61.007812 70.257812 -50.671875 70.40625 -43.359375 C 70.5625 -36.054688 71.066406 -30.8125 71.921875 -27.625 C 72.785156 -24.4375 74.222656 -22.53125 76.234375 -21.90625 C 78.253906 -21.289062 81.054688 -20.984375 84.640625 -20.984375 L 99.328125 -20.984375 C 108.023438 -20.984375 115.25 -22.378906 121 -25.171875 C 126.757812 -27.972656 131.347656 -31.160156 134.765625 -34.734375 C 138.804688 -39.085938 141.523438 -42.273438 142.921875 -44.296875 C 144.316406 -46.316406 145.015625 -45.929688 145.015625 -43.140625 C 145.015625 -41.734375 144.9375 -39.707031 144.78125 -37.0625 C 144.632812 -34.425781 144.40625 -30.929688 144.09375 -26.578125 Z M 144.09375 -26.578125 "/></g></g></g><g fill="#231f20" fill-opacity="1"><g transform="translate(313.630226, 250.089162)"><g/></g></g><g fill="#231f20" fill-opacity="1"><g transform="translate(401.293878, 250.089162)"><g><path d="M 49.65625 -13.984375 C 49.5 -11.503906 49.535156 -9.40625 49.765625 -7.6875 C 50.003906 -5.976562 50.125 -4.582031 50.125 -3.5 C 50.125 -1.945312 49.539062 -0.972656 48.375 -0.578125 C 47.207031 -0.191406 44.375 0 39.875 0 L 29.84375 0 C 23.15625 0 18.453125 0.0351562 15.734375 0.109375 C 13.015625 0.191406 11.65625 -0.234375 11.65625 -1.171875 C 11.65625 -1.941406 12.546875 -3.414062 14.328125 -5.59375 C 16.117188 -7.769531 18.101562 -10.878906 20.28125 -14.921875 C 22.613281 -19.273438 24.554688 -23.046875 26.109375 -26.234375 C 27.660156 -29.421875 29.253906 -33.109375 30.890625 -37.296875 C 32.523438 -41.492188 34.546875 -47.085938 36.953125 -54.078125 C 39.359375 -61.078125 42.582031 -70.410156 46.625 -82.078125 L 63.1875 -129.171875 C 63.957031 -131.804688 64.769531 -134.953125 65.625 -138.609375 C 66.488281 -142.265625 67 -145.800781 67.15625 -149.21875 C 67.300781 -151.863281 67.21875 -154.078125 66.90625 -155.859375 C 66.601562 -157.648438 66.453125 -159.085938 66.453125 -160.171875 C 66.453125 -161.578125 67.035156 -162.429688 68.203125 -162.734375 C 69.367188 -163.046875 71.816406 -163.203125 75.546875 -163.203125 L 84.40625 -163.203125 C 89.21875 -163.203125 93.21875 -163.007812 96.40625 -162.625 C 99.59375 -162.238281 102.351562 -161.035156 104.6875 -159.015625 C 107.019531 -156.992188 109.347656 -153.726562 111.671875 -149.21875 C 114.003906 -144.707031 116.6875 -138.332031 119.71875 -130.09375 C 122.75 -121.863281 126.519531 -111.296875 131.03125 -98.390625 L 153.65625 -33.8125 C 154.582031 -31.164062 155.898438 -28.015625 157.609375 -24.359375 C 159.316406 -20.710938 161.335938 -17.175781 163.671875 -13.75 C 165.847656 -10.332031 167.710938 -7.726562 169.265625 -5.9375 C 170.828125 -4.15625 171.609375 -2.796875 171.609375 -1.859375 C 171.609375 -1.085938 170.867188 -0.546875 169.390625 -0.234375 C 167.910156 0.078125 165.382812 0.234375 161.8125 0.234375 C 159.632812 0.234375 156.988281 0.191406 153.875 0.109375 C 150.769531 0.0351562 147.117188 0 142.921875 0 L 128.46875 0 C 123.34375 0 119.648438 -0.113281 117.390625 -0.34375 C 115.140625 -0.582031 113.703125 -1.128906 113.078125 -1.984375 C 112.453125 -2.835938 112.21875 -4.15625 112.375 -5.9375 C 112.53125 -7.726562 112.53125 -10.179688 112.375 -13.296875 C 112.375 -16.554688 111.984375 -19.972656 111.203125 -23.546875 C 110.429688 -27.117188 109.660156 -30.226562 108.890625 -32.875 L 107.25 -37.53125 C 106.78125 -39.25 106.078125 -40.414062 105.140625 -41.03125 C 104.210938 -41.65625 102 -42.046875 98.5 -42.203125 C 95.007812 -42.359375 89.144531 -42.4375 80.90625 -42.4375 C 72.820312 -42.4375 67.03125 -42.359375 63.53125 -42.203125 C 60.03125 -42.046875 57.851562 -41.695312 57 -41.15625 C 56.144531 -40.613281 55.488281 -39.5625 55.03125 -38 C 54.40625 -35.976562 53.429688 -32.945312 52.109375 -28.90625 C 50.785156 -24.863281 49.96875 -19.890625 49.65625 -13.984375 Z M 80.90625 -63.421875 C 86.1875 -63.421875 89.953125 -63.648438 92.203125 -64.109375 C 94.460938 -64.578125 95.59375 -66.132812 95.59375 -68.78125 C 95.59375 -70.644531 95.085938 -73.285156 94.078125 -76.703125 C 93.066406 -80.128906 91.628906 -84.5625 89.765625 -90 C 87.585938 -96.6875 85.875 -101.695312 84.625 -105.03125 C 83.382812 -108.375 82.222656 -110.046875 81.140625 -110.046875 C 80.046875 -110.046875 78.835938 -108.375 77.515625 -105.03125 C 76.203125 -101.695312 74.457031 -96.6875 72.28125 -90 C 70.414062 -84.5625 68.976562 -80.128906 67.96875 -76.703125 C 66.957031 -73.285156 66.453125 -70.644531 66.453125 -68.78125 C 66.453125 -66.132812 67.578125 -64.578125 69.828125 -64.109375 C 72.085938 -63.648438 75.78125 -63.421875 80.90625 -63.421875 Z M 80.90625 -63.421875 "/></g></g></g><g fill="#231f20" fill-opacity="1"><g transform="translate(574.756903, 250.089162)"><g><path d="M 144.09375 -26.578125 C 143.78125 -21.296875 143.3125 -16.984375 142.6875 -13.640625 C 142.070312 -10.296875 140.710938 -7.691406 138.609375 -5.828125 C 136.515625 -3.960938 133.171875 -2.601562 128.578125 -1.75 C 123.992188 -0.894531 117.582031 -0.390625 109.34375 -0.234375 C 101.113281 -0.078125 90.546875 0 77.640625 0 C 69.085938 0 61.78125 0.0351562 55.71875 0.109375 C 49.65625 0.191406 44.453125 0.234375 40.109375 0.234375 C 32.796875 0.234375 27.859375 -0.0351562 25.296875 -0.578125 C 22.734375 -1.128906 21.453125 -2.335938 21.453125 -4.203125 C 21.453125 -5.441406 21.757812 -6.914062 22.375 -8.625 C 23 -10.332031 23.703125 -12.507812 24.484375 -15.15625 C 25.410156 -18.726562 26.066406 -22.414062 26.453125 -26.21875 C 26.847656 -30.03125 27.046875 -33.179688 27.046875 -35.671875 L 27.046875 -127.765625 C 27.046875 -130.253906 26.847656 -133.363281 26.453125 -137.09375 C 26.066406 -140.820312 25.410156 -144.550781 24.484375 -148.28125 C 23.390625 -151.707031 22.414062 -154.429688 21.5625 -156.453125 C 20.707031 -158.472656 20.28125 -160.023438 20.28125 -161.109375 C 20.28125 -162.203125 20.863281 -162.863281 22.03125 -163.09375 C 23.195312 -163.320312 25.257812 -163.4375 28.21875 -163.4375 C 30.382812 -163.4375 33.140625 -163.394531 36.484375 -163.3125 C 39.828125 -163.238281 43.910156 -163.203125 48.734375 -163.203125 C 53.546875 -163.203125 57.625 -163.238281 60.96875 -163.3125 C 64.3125 -163.394531 67.070312 -163.4375 69.25 -163.4375 C 72.351562 -163.4375 74.445312 -163.320312 75.53125 -163.09375 C 76.625 -162.863281 77.171875 -162.203125 77.171875 -161.109375 C 77.171875 -160.023438 76.742188 -158.472656 75.890625 -156.453125 C 75.035156 -154.429688 74.066406 -151.707031 72.984375 -148.28125 C 71.890625 -144.550781 71.148438 -140.820312 70.765625 -137.09375 C 70.378906 -133.363281 70.1875 -130.253906 70.1875 -127.765625 L 70.1875 -74.375 C 70.1875 -61.007812 70.257812 -50.671875 70.40625 -43.359375 C 70.5625 -36.054688 71.066406 -30.8125 71.921875 -27.625 C 72.785156 -24.4375 74.222656 -22.53125 76.234375 -21.90625 C 78.253906 -21.289062 81.054688 -20.984375 84.640625 -20.984375 L 99.328125 -20.984375 C 108.023438 -20.984375 115.25 -22.378906 121 -25.171875 C 126.757812 -27.972656 131.347656 -31.160156 134.765625 -34.734375 C 138.804688 -39.085938 141.523438 -42.273438 142.921875 -44.296875 C 144.316406 -46.316406 145.015625 -45.929688 145.015625 -43.140625 C 145.015625 -41.734375 144.9375 -39.707031 144.78125 -37.0625 C 144.632812 -34.425781 144.40625 -30.929688 144.09375 -26.578125 Z M 144.09375 -26.578125 "/></g></g></g><g fill="#231f20" fill-opacity="1"><g transform="translate(714.179969, 250.089162)"><g><path d="M 70.40625 -127.765625 L 70.40625 -35.671875 C 70.40625 -33.179688 70.5625 -30.03125 70.875 -26.21875 C 71.1875 -22.414062 71.890625 -18.726562 72.984375 -15.15625 C 74.066406 -11.738281 75.035156 -9.019531 75.890625 -7 C 76.742188 -4.976562 77.171875 -3.421875 77.171875 -2.328125 C 77.171875 -1.242188 76.585938 -0.546875 75.421875 -0.234375 C 74.253906 0.078125 72.117188 0.234375 69.015625 0.234375 C 66.835938 0.234375 64.078125 0.191406 60.734375 0.109375 C 57.390625 0.0351562 53.390625 0 48.734375 0 C 44.066406 0 40.0625 0.0351562 36.71875 0.109375 C 33.375 0.191406 30.613281 0.234375 28.4375 0.234375 C 25.488281 0.234375 23.390625 0.078125 22.140625 -0.234375 C 20.898438 -0.546875 20.28125 -1.242188 20.28125 -2.328125 C 20.28125 -3.421875 20.707031 -4.976562 21.5625 -7 C 22.414062 -9.019531 23.390625 -11.738281 24.484375 -15.15625 C 25.566406 -18.726562 26.300781 -22.414062 26.6875 -26.21875 C 27.082031 -30.03125 27.28125 -33.179688 27.28125 -35.671875 L 27.28125 -127.765625 C 27.28125 -130.253906 27.082031 -133.363281 26.6875 -137.09375 C 26.300781 -140.820312 25.566406 -144.472656 24.484375 -148.046875 C 23.390625 -151.628906 22.414062 -154.390625 21.5625 -156.328125 C 20.707031 -158.273438 20.28125 -159.789062 20.28125 -160.875 C 20.28125 -161.96875 20.898438 -162.664062 22.140625 -162.96875 C 23.390625 -163.28125 25.488281 -163.4375 28.4375 -163.4375 C 30.613281 -163.4375 33.375 -163.394531 36.71875 -163.3125 C 40.0625 -163.238281 44.066406 -163.203125 48.734375 -163.203125 C 53.390625 -163.203125 57.390625 -163.238281 60.734375 -163.3125 C 64.078125 -163.394531 66.835938 -163.4375 69.015625 -163.4375 C 72.117188 -163.4375 74.253906 -163.28125 75.421875 -162.96875 C 76.585938 -162.664062 77.171875 -161.96875 77.171875 -160.875 C 77.171875 -159.789062 76.742188 -158.273438 75.890625 -156.328125 C 75.035156 -154.390625 74.066406 -151.628906 72.984375 -148.046875 C 71.890625 -144.472656 71.1875 -140.820312 70.875 -137.09375 C 70.5625 -133.363281 70.40625 -130.253906 70.40625 -127.765625 Z M 70.40625 -127.765625 "/></g></g></g><g fill="#231f20" fill-opacity="1"><g transform="translate(801.849167, 250.089162)"><g/></g></g></g></g><g transform="matrix(1, 0, 0, 1, 702, 273)"><g clip-path="url(#aa551171c8)"><g fill="#231f20" fill-opacity="1"><g transform="translate(0.0917305, 81.635389)"><g><path d="M 14.109375 0 L 8.203125 0 L 8.203125 -54.3125 L 17.6875 -54.3125 L 34.140625 -8.328125 L 34.921875 -8.328125 L 51.375 -54.3125 L 60.515625 -54.3125 L 60.515625 0 L 54.453125 0 L 54.453125 -44.3125 L 53.53125 -44.46875 L 37.484375 0 L 31.125 0 L 15.046875 -44.46875 L 14.109375 -44.3125 Z M 14.109375 0 "/></g></g></g><g fill="#231f20" fill-opacity="1"><g transform="translate(71.901275, 81.635389)"><g><path d="M 14.59375 -25.59375 L 14.59375 -5.28125 L 42.28125 -5.28125 L 42.28125 0 L 8.203125 0 L 8.203125 -54.3125 L 41.671875 -54.3125 L 41.671875 -49.03125 L 14.59375 -49.03125 L 14.59375 -30.875 L 38.484375 -30.875 L 38.484375 -25.59375 Z M 14.59375 -25.59375 "/></g></g></g><g fill="#231f20" fill-opacity="1"><g transform="translate(120.825986, 81.635389)"><g><path d="M 27.640625 -54.3125 C 31.378906 -54.3125 34.582031 -53.640625 37.25 -52.296875 C 39.925781 -50.960938 41.960938 -49.050781 43.359375 -46.5625 C 44.765625 -44.070312 45.46875 -41.144531 45.46875 -37.78125 C 45.46875 -34.414062 44.765625 -31.492188 43.359375 -29.015625 C 41.960938 -26.535156 39.925781 -24.617188 37.25 -23.265625 C 34.582031 -21.921875 31.378906 -21.25 27.640625 -21.25 L 14.59375 -21.25 L 14.59375 0 L 8.203125 0 L 8.203125 -54.3125 Z M 27.453125 -26.703125 C 35.003906 -26.703125 38.78125 -30.394531 38.78125 -37.78125 C 38.78125 -45.1875 35.003906 -48.890625 27.453125 -48.890625 L 14.59375 -48.890625 L 14.59375 -26.703125 Z M 27.453125 -26.703125 "/></g></g></g><g fill="#231f20" fill-opacity="1"><g transform="translate(173.391467, 81.635389)"><g/></g></g><g fill="#231f20" fill-opacity="1"><g transform="translate(195.084725, 81.635389)"><g><path d="M 30.015625 0.78125 C 25.265625 0.78125 21.03125 -0.304688 17.3125 -2.484375 C 13.59375 -4.671875 10.679688 -7.859375 8.578125 -12.046875 C 6.472656 -16.242188 5.421875 -21.28125 5.421875 -27.15625 C 5.421875 -33.019531 6.472656 -38.050781 8.578125 -42.25 C 10.679688 -46.445312 13.59375 -49.632812 17.3125 -51.8125 C 21.03125 -54 25.265625 -55.09375 30.015625 -55.09375 C 35.085938 -55.09375 39.304688 -54.128906 42.671875 -52.203125 C 46.046875 -50.285156 48.476562 -47.394531 49.96875 -43.53125 L 45.875 -40.828125 L 44.953125 -40.828125 C 43.460938 -43.921875 41.53125 -46.117188 39.15625 -47.421875 C 36.78125 -48.722656 33.734375 -49.375 30.015625 -49.375 C 26.597656 -49.375 23.5625 -48.609375 20.90625 -47.078125 C 18.257812 -45.554688 16.15625 -43.140625 14.59375 -39.828125 C 13.039062 -36.523438 12.265625 -32.300781 12.265625 -27.15625 C 12.265625 -22 13.039062 -17.773438 14.59375 -14.484375 C 16.15625 -11.191406 18.257812 -8.785156 20.90625 -7.265625 C 23.5625 -5.742188 26.597656 -4.984375 30.015625 -4.984375 C 33.953125 -4.984375 37.171875 -5.867188 39.671875 -7.640625 C 42.171875 -9.410156 44.03125 -12.273438 45.25 -16.234375 L 46.171875 -16.234375 L 50.453125 -14.109375 C 49.160156 -9.304688 46.773438 -5.625 43.296875 -3.0625 C 39.816406 -0.5 35.390625 0.78125 30.015625 0.78125 Z M 30.015625 0.78125 "/></g></g></g><g fill="#231f20" fill-opacity="1"><g transform="translate(251.402403, 81.635389)"><g><path d="M 29.796875 0.78125 C 25.085938 0.78125 20.898438 -0.234375 17.234375 -2.265625 C 13.566406 -4.296875 10.679688 -7.394531 8.578125 -11.5625 C 6.472656 -15.738281 5.421875 -20.9375 5.421875 -27.15625 C 5.421875 -33.375 6.472656 -38.566406 8.578125 -42.734375 C 10.679688 -46.910156 13.566406 -50.015625 17.234375 -52.046875 C 20.898438 -54.078125 25.085938 -55.09375 29.796875 -55.09375 C 34.492188 -55.09375 38.675781 -54.078125 42.34375 -52.046875 C 46.007812 -50.015625 48.894531 -46.910156 51 -42.734375 C 53.101562 -38.566406 54.15625 -33.375 54.15625 -27.15625 C 54.15625 -20.9375 53.101562 -15.738281 51 -11.5625 C 48.894531 -7.394531 46.007812 -4.296875 42.34375 -2.265625 C 38.675781 -0.234375 34.492188 0.78125 29.796875 0.78125 Z M 29.796875 -5.125 C 35.441406 -5.125 39.773438 -6.890625 42.796875 -10.421875 C 45.816406 -13.953125 47.328125 -19.53125 47.328125 -27.15625 C 47.328125 -34.78125 45.816406 -40.359375 42.796875 -43.890625 C 39.773438 -47.421875 35.441406 -49.1875 29.796875 -49.1875 C 18.109375 -49.1875 12.265625 -41.84375 12.265625 -27.15625 C 12.265625 -12.46875 18.109375 -5.125 29.796875 -5.125 Z M 29.796875 -5.125 "/></g></g></g><g fill="#231f20" fill-opacity="1"><g transform="translate(314.035724, 81.635389)"><g><path d="M 14.453125 0 L 8.203125 0 L 8.203125 -54.3125 L 16.046875 -54.3125 L 42.53125 -12.8125 L 43.46875 -12.96875 L 43.46875 -54.3125 L 49.671875 -54.3125 L 49.671875 0 L 42.984375 0 L 15.375 -44.390625 L 14.453125 -44.25 Z M 14.453125 0 "/></g></g></g><g fill="#231f20" fill-opacity="1"><g transform="translate(374.997274, 81.635389)"><g><path d="M 42.390625 -54.3125 L 42.390625 -48.890625 L 25.375 -48.890625 L 25.375 0 L 19.015625 0 L 19.015625 -48.890625 L 2 -48.890625 L 2 -54.3125 Z M 42.390625 -54.3125 "/></g></g></g><g fill="#231f20" fill-opacity="1"><g transform="translate(422.398807, 81.635389)"><g><path d="M 8.203125 0 L 8.203125 -54.3125 L 27.9375 -54.3125 C 31.570312 -54.3125 34.628906 -53.707031 37.109375 -52.5 C 39.585938 -51.300781 41.445312 -49.601562 42.6875 -47.40625 C 43.925781 -45.21875 44.546875 -42.628906 44.546875 -39.640625 C 44.546875 -36.265625 43.703125 -33.484375 42.015625 -31.296875 C 40.328125 -29.109375 37.703125 -27.46875 34.140625 -26.375 L 34.140625 -25.59375 C 35.898438 -24.894531 37.335938 -23.800781 38.453125 -22.3125 C 39.566406 -20.832031 40.59375 -18.617188 41.53125 -15.671875 L 46.546875 0 L 39.96875 0 L 34.546875 -16.609375 C 33.898438 -18.566406 33.15625 -20.101562 32.3125 -21.21875 C 31.476562 -22.332031 30.414062 -23.132812 29.125 -23.625 C 27.832031 -24.125 26.195312 -24.375 24.21875 -24.375 L 14.59375 -24.375 L 14.59375 0 Z M 27.78125 -29.796875 C 31.175781 -29.796875 33.703125 -30.582031 35.359375 -32.15625 C 37.023438 -33.726562 37.859375 -36.125 37.859375 -39.34375 C 37.859375 -42.5625 37.023438 -44.957031 35.359375 -46.53125 C 33.703125 -48.101562 31.175781 -48.890625 27.78125 -48.890625 L 14.59375 -48.890625 L 14.59375 -29.796875 Z M 27.78125 -29.796875 "/></g></g></g><g fill="#231f20" fill-opacity="1"><g transform="translate(475.744476, 81.635389)"><g><path d="M 48.890625 0 L 42.046875 0 L 37.03125 -14.890625 L 13.890625 -14.890625 L 8.84375 0 L 2.15625 0 L 21.09375 -54.3125 L 29.9375 -54.3125 Z M 25 -47.734375 L 15.671875 -20.25 L 35.21875 -20.25 L 25.921875 -47.734375 Z M 25 -47.734375 "/></g></g></g><g fill="#231f20" fill-opacity="1"><g transform="translate(529.833112, 81.635389)"><g><path d="M 30.015625 0.78125 C 25.265625 0.78125 21.03125 -0.304688 17.3125 -2.484375 C 13.59375 -4.671875 10.679688 -7.859375 8.578125 -12.046875 C 6.472656 -16.242188 5.421875 -21.28125 5.421875 -27.15625 C 5.421875 -33.019531 6.472656 -38.050781 8.578125 -42.25 C 10.679688 -46.445312 13.59375 -49.632812 17.3125 -51.8125 C 21.03125 -54 25.265625 -55.09375 30.015625 -55.09375 C 35.085938 -55.09375 39.304688 -54.128906 42.671875 -52.203125 C 46.046875 -50.285156 48.476562 -47.394531 49.96875 -43.53125 L 45.875 -40.828125 L 44.953125 -40.828125 C 43.460938 -43.921875 41.53125 -46.117188 39.15625 -47.421875 C 36.78125 -48.722656 33.734375 -49.375 30.015625 -49.375 C 26.597656 -49.375 23.5625 -48.609375 20.90625 -47.078125 C 18.257812 -45.554688 16.15625 -43.140625 14.59375 -39.828125 C 13.039062 -36.523438 12.265625 -32.300781 12.265625 -27.15625 C 12.265625 -22 13.039062 -17.773438 14.59375 -14.484375 C 16.15625 -11.191406 18.257812 -8.785156 20.90625 -7.265625 C 23.5625 -5.742188 26.597656 -4.984375 30.015625 -4.984375 C 33.953125 -4.984375 37.171875 -5.867188 39.671875 -7.640625 C 42.171875 -9.410156 44.03125 -12.273438 45.25 -16.234375 L 46.171875 -16.234375 L 50.453125 -14.109375 C 49.160156 -9.304688 46.773438 -5.625 43.296875 -3.0625 C 39.816406 -0.5 35.390625 0.78125 30.015625 0.78125 Z M 30.015625 0.78125 "/></g></g></g><g fill="#231f20" fill-opacity="1"><g transform="translate(586.150836, 81.635389)"><g><path d="M 42.390625 -54.3125 L 42.390625 -48.890625 L 25.375 -48.890625 L 25.375 0 L 19.015625 0 L 19.015625 -48.890625 L 2 -48.890625 L 2 -54.3125 Z M 42.390625 -54.3125 "/></g></g></g><g fill="#231f20" fill-opacity="1"><g transform="translate(633.552345, 81.635389)"><g><path d="M 14.59375 0 L 8.203125 0 L 8.203125 -54.3125 L 14.59375 -54.3125 Z M 14.59375 0 "/></g></g></g><g fill="#231f20" fill-opacity="1"><g transform="translate(659.44361, 81.635389)"><g><path d="M 14.453125 0 L 8.203125 0 L 8.203125 -54.3125 L 16.046875 -54.3125 L 42.53125 -12.8125 L 43.46875 -12.96875 L 43.46875 -54.3125 L 49.671875 -54.3125 L 49.671875 0 L 42.984375 0 L 15.375 -44.390625 L 14.453125 -44.25 Z M 14.453125 0 "/></g></g></g><g fill="#231f20" fill-opacity="1"><g transform="translate(720.405184, 81.635389)"><g><path d="M 28.5625 0.78125 C 24.007812 0.78125 19.992188 -0.253906 16.515625 -2.328125 C 13.035156 -4.410156 10.316406 -7.546875 8.359375 -11.734375 C 6.398438 -15.921875 5.421875 -21.0625 5.421875 -27.15625 C 5.421875 -33.25 6.46875 -38.382812 8.5625 -42.5625 C 10.65625 -46.75 13.554688 -49.882812 17.265625 -51.96875 C 20.984375 -54.050781 25.269531 -55.09375 30.125 -55.09375 C 35.320312 -55.09375 39.59375 -54.15625 42.9375 -52.28125 C 46.28125 -50.414062 48.644531 -47.625 50.03125 -43.90625 L 45.875 -41.453125 L 44.953125 -41.453125 C 43.535156 -44.273438 41.625 -46.300781 39.21875 -47.53125 C 36.820312 -48.757812 33.789062 -49.375 30.125 -49.375 C 18.21875 -49.375 12.265625 -41.96875 12.265625 -27.15625 C 12.265625 -19.457031 13.757812 -13.835938 16.75 -10.296875 C 19.75 -6.753906 23.945312 -4.984375 29.34375 -4.984375 C 34.300781 -4.984375 38.007812 -6.109375 40.46875 -8.359375 C 42.9375 -10.609375 44.171875 -14.160156 44.171875 -19.015625 L 44.171875 -23.8125 L 28.71875 -23.8125 L 28.71875 -28.9375 L 50.375 -28.9375 L 50.375 0 L 44.46875 0 L 44.46875 -7.28125 L 43.6875 -7.46875 C 42.25 -4.664062 40.25 -2.585938 37.6875 -1.234375 C 35.125 0.109375 32.082031 0.78125 28.5625 0.78125 Z M 28.5625 0.78125 "/></g></g></g><g fill="#231f20" fill-opacity="1"><g transform="translate(779.929555, 81.635389)"><g/></g></g></g></g><g transform="matrix(1, 0, 0, 1, 743, 31)"><g clip-path="url(#973c572fa8)"><g fill="#0f73d1" fill-opacity="1"><g transform="translate(1.146693, 46.553784)"><g><path d="M 5.390625 -20.984375 L 5.390625 -21.453125 C 5.390625 -21.847656 5.53125 -22.179688 5.8125 -22.453125 C 6.09375 -22.734375 6.429688 -22.875 6.828125 -22.875 L 47.328125 -22.875 L 47.328125 -22.421875 C 47.328125 -22.023438 47.1875 -21.6875 46.90625 -21.40625 C 46.632812 -21.125 46.300781 -20.984375 45.90625 -20.984375 Z M 39.71875 7.609375 C 39.71875 6.691406 39.753906 5.992188 39.828125 5.515625 C 39.910156 5.035156 40.101562 4.632812 40.40625 4.3125 C 40.71875 3.988281 41.242188 3.597656 41.984375 3.140625 C 42.410156 2.828125 42.773438 2.414062 43.078125 1.90625 C 43.390625 1.40625 43.546875 0.769531 43.546875 0 L 9.21875 0 C 7.4375 0 5.921875 -0.441406 4.671875 -1.328125 C 3.429688 -2.222656 2.550781 -3.394531 2.03125 -4.84375 C 1.875 -5.425781 1.890625 -5.984375 2.078125 -6.515625 C 2.265625 -7.054688 2.640625 -7.453125 3.203125 -7.703125 C 3.773438 -7.953125 4.503906 -7.921875 5.390625 -7.609375 C 5.390625 -6.503906 5.742188 -5.597656 6.453125 -4.890625 C 7.160156 -4.179688 8.082031 -3.828125 9.21875 -3.828125 L 43.546875 -3.828125 C 43.546875 -5.054688 43.140625 -5.992188 42.328125 -6.640625 C 41.515625 -7.285156 40.644531 -7.609375 39.71875 -7.609375 L 13.0625 -7.609375 C 11.550781 -7.609375 10.21875 -7.945312 9.0625 -8.625 C 7.90625 -9.300781 7.003906 -10.21875 6.359375 -11.375 C 5.710938 -12.53125 5.390625 -13.828125 5.390625 -15.265625 L 5.390625 -19.046875 L 47.328125 -19.046875 C 47.328125 -17.941406 46.878906 -17.035156 45.984375 -16.328125 C 45.097656 -15.617188 43.976562 -15.265625 42.625 -15.265625 L 9.21875 -15.265625 C 9.21875 -13.910156 9.617188 -12.929688 10.421875 -12.328125 C 11.222656 -11.734375 12.101562 -11.4375 13.0625 -11.4375 L 40.234375 -11.4375 C 41.671875 -11.4375 42.921875 -11.082031 43.984375 -10.375 C 45.046875 -9.664062 45.867188 -8.734375 46.453125 -7.578125 C 47.035156 -6.429688 47.328125 -5.179688 47.328125 -3.828125 L 47.328125 0.140625 C 47.328125 1.554688 47.003906 2.820312 46.359375 3.9375 C 45.710938 5.0625 44.820312 5.953125 43.6875 6.609375 C 42.550781 7.273438 41.226562 7.609375 39.71875 7.609375 Z M 39.71875 7.609375 "/></g></g></g><g fill="#0f73d1" fill-opacity="1"><g transform="translate(48.466666, 46.553784)"><g><path d="M 17.765625 -9.21875 L 14.859375 -12.09375 L 17.765625 -15 L 20.671875 -12.09375 Z M -0.875 0 C -1.550781 0 -2.113281 -0.179688 -2.5625 -0.546875 C -3.007812 -0.921875 -3.234375 -1.382812 -3.234375 -1.9375 C -3.234375 -2.457031 -3.007812 -2.898438 -2.5625 -3.265625 C -2.113281 -3.640625 -1.550781 -3.828125 -0.875 -3.828125 L 27.71875 -3.828125 C 27.71875 -4.722656 27.332031 -5.578125 26.5625 -6.390625 C 25.800781 -7.203125 24.773438 -7.609375 23.484375 -7.609375 C 23.484375 -8.535156 23.734375 -9.265625 24.234375 -9.796875 C 24.742188 -10.335938 25.375 -10.644531 26.125 -10.71875 C 26.882812 -10.800781 27.648438 -10.609375 28.421875 -10.140625 C 29.191406 -9.679688 29.828125 -8.925781 30.328125 -7.875 C 30.835938 -6.832031 31.09375 -5.46875 31.09375 -3.78125 L 31.09375 0 Z M -0.875 0 "/></g></g></g><g fill="#0f73d1" fill-opacity="1"><g transform="translate(79.552107, 46.553784)"><g><path d="M -0.875 0 C -1.550781 0 -2.113281 -0.179688 -2.5625 -0.546875 C -3.007812 -0.921875 -3.234375 -1.382812 -3.234375 -1.9375 C -3.234375 -2.457031 -3.007812 -2.898438 -2.5625 -3.265625 C -2.113281 -3.640625 -1.550781 -3.828125 -0.875 -3.828125 L 27.71875 -3.828125 C 27.71875 -4.722656 27.332031 -5.578125 26.5625 -6.390625 C 25.800781 -7.203125 24.773438 -7.609375 23.484375 -7.609375 C 23.484375 -8.597656 23.734375 -9.367188 24.234375 -9.921875 C 24.742188 -10.472656 25.375 -10.796875 26.125 -10.890625 C 26.882812 -10.984375 27.648438 -10.789062 28.421875 -10.3125 C 29.191406 -9.832031 29.828125 -9.0625 30.328125 -8 C 30.835938 -6.9375 31.09375 -5.53125 31.09375 -3.78125 L 31.09375 0 Z M 13.984375 8.578125 L 11.078125 5.671875 L 13.984375 2.8125 L 16.84375 5.671875 Z M 21.59375 8.578125 L 18.6875 5.671875 L 21.59375 2.8125 L 24.5 5.671875 Z M 21.59375 8.578125 "/></g></g></g><g fill="#0f73d1" fill-opacity="1"><g transform="translate(110.637548, 46.553784)"><g><path d="M 14.078125 -12.734375 L 14.078125 -17.859375 C 14.078125 -18.253906 14.210938 -18.554688 14.484375 -18.765625 C 14.765625 -18.984375 15.054688 -19.09375 15.359375 -19.09375 L 15.359375 -16.5625 L 19.140625 -16.5625 C 20.003906 -16.5625 20.644531 -16.289062 21.0625 -15.75 C 21.476562 -15.21875 21.6875 -14.644531 21.6875 -14.03125 L 21.6875 -12.734375 Z M 15.359375 -14.03125 L 20.625 -14.03125 C 20.625 -14.363281 20.515625 -14.648438 20.296875 -14.890625 C 20.078125 -15.140625 19.753906 -15.265625 19.328125 -15.265625 L 15.359375 -15.265625 Z M -0.875 0 C -1.550781 0 -2.113281 -0.179688 -2.5625 -0.546875 C -3.007812 -0.921875 -3.234375 -1.382812 -3.234375 -1.9375 C -3.234375 -2.457031 -3.007812 -2.898438 -2.5625 -3.265625 C -2.113281 -3.640625 -1.550781 -3.828125 -0.875 -3.828125 L 30.90625 -3.828125 C 30.90625 -4.722656 30.519531 -5.578125 29.75 -6.390625 C 28.988281 -7.203125 27.960938 -7.609375 26.671875 -7.609375 C 26.671875 -9.179688 26.953125 -10.242188 27.515625 -10.796875 C 28.085938 -11.347656 28.816406 -11.460938 29.703125 -11.140625 C 30.597656 -10.816406 31.492188 -10.117188 32.390625 -9.046875 C 33.648438 -7.628906 34.28125 -5.875 34.28125 -3.78125 L 34.28125 0 Z M -0.875 0 "/></g></g></g><g fill="#0f73d1" fill-opacity="1"><g transform="translate(144.905326, 46.553784)"><g><path d="M 45.71875 7.609375 C 45.71875 6.441406 45.863281 5.582031 46.15625 5.03125 C 46.445312 4.476562 46.800781 4.066406 47.21875 3.796875 C 47.632812 3.535156 48.046875 3.296875 48.453125 3.078125 C 48.867188 2.867188 49.222656 2.539062 49.515625 2.09375 C 49.816406 1.65625 49.96875 0.957031 49.96875 0 L -0.875 0 C -1.550781 0 -2.113281 -0.179688 -2.5625 -0.546875 C -3.007812 -0.921875 -3.234375 -1.382812 -3.234375 -1.9375 C -3.234375 -2.457031 -3.007812 -2.898438 -2.5625 -3.265625 C -2.113281 -3.640625 -1.550781 -3.828125 -0.875 -3.828125 L 49.96875 -3.828125 C 49.96875 -4.753906 49.585938 -5.613281 48.828125 -6.40625 C 48.078125 -7.207031 47.039062 -7.609375 45.71875 -7.609375 L 11.390625 -7.609375 L 11.390625 -11.484375 C 11.390625 -13.023438 11.734375 -14.363281 12.421875 -15.5 C 13.117188 -16.632812 14.046875 -17.515625 15.203125 -18.140625 C 16.359375 -18.773438 17.625 -19.09375 19 -19.09375 L 36.484375 -19.09375 C 37.691406 -19.09375 38.554688 -19.285156 39.078125 -19.671875 C 39.597656 -20.054688 39.925781 -20.539062 40.0625 -21.125 C 40.207031 -21.707031 40.28125 -22.289062 40.28125 -22.875 C 41.226562 -22.875 41.96875 -22.617188 42.5 -22.109375 C 43.039062 -21.609375 43.347656 -20.976562 43.421875 -20.21875 C 43.503906 -19.46875 43.316406 -18.707031 42.859375 -17.9375 C 42.398438 -17.175781 41.644531 -16.539062 40.59375 -16.03125 C 39.550781 -15.519531 38.179688 -15.265625 36.484375 -15.265625 L 18.125 -15.265625 C 17.207031 -15.265625 16.335938 -14.957031 15.515625 -14.34375 C 14.703125 -13.726562 14.296875 -12.773438 14.296875 -11.484375 L 45.71875 -11.484375 C 47.257812 -11.484375 48.601562 -11.144531 49.75 -10.46875 C 50.90625 -9.789062 51.796875 -8.875 52.421875 -7.71875 C 53.054688 -6.570312 53.375 -5.273438 53.375 -3.828125 L 53.375 0 C 53.375 1.445312 53.054688 2.742188 52.421875 3.890625 C 51.796875 5.046875 50.90625 5.953125 49.75 6.609375 C 48.601562 7.273438 47.257812 7.609375 45.71875 7.609375 Z M 45.71875 7.609375 "/></g></g></g><g fill="#0f73d1" fill-opacity="1"><g transform="translate(200.204199, 46.553784)"><g><path d="M 1.9375 0 L 1.9375 -15.3125 C 1.9375 -16.425781 2.289062 -17.332031 3 -18.03125 C 3.707031 -18.738281 4.613281 -19.09375 5.71875 -19.09375 L 5.765625 -19.09375 L 5.765625 -3.78125 C 5.765625 -2.675781 5.410156 -1.769531 4.703125 -1.0625 C 3.992188 -0.351562 3.085938 0 1.984375 0 Z M 1.9375 0 "/></g></g></g><g fill="#0f73d1" fill-opacity="1"><g transform="translate(207.906391, 46.553784)"><g><path d="M 1.9375 3.78125 C 3.476562 3.78125 4.5 3.429688 5 2.734375 C 5.507812 2.046875 5.765625 1.132812 5.765625 0 L 5.765625 -3.875 C 5.765625 -4.976562 6.117188 -5.882812 6.828125 -6.59375 C 7.535156 -7.300781 8.457031 -7.65625 9.59375 -7.65625 L 9.59375 0 C 9.59375 1.6875 9.332031 3.0625 8.8125 4.125 C 8.289062 5.1875 7.648438 5.941406 6.890625 6.390625 C 6.140625 6.835938 5.382812 7.019531 4.625 6.9375 C 3.875 6.863281 3.238281 6.554688 2.71875 6.015625 C 2.195312 5.484375 1.9375 4.738281 1.9375 3.78125 Z M 1.9375 3.78125 "/></g></g></g><g fill="#0f73d1" fill-opacity="1"><g transform="translate(217.499517, 46.553784)"><g><path d="M 14.078125 -12.734375 L 14.078125 -17.859375 C 14.078125 -18.253906 14.210938 -18.554688 14.484375 -18.765625 C 14.765625 -18.984375 15.054688 -19.09375 15.359375 -19.09375 L 15.359375 -16.5625 L 19.140625 -16.5625 C 20.003906 -16.5625 20.644531 -16.289062 21.0625 -15.75 C 21.476562 -15.21875 21.6875 -14.644531 21.6875 -14.03125 L 21.6875 -12.734375 Z M 15.359375 -14.03125 L 20.625 -14.03125 C 20.625 -14.363281 20.515625 -14.648438 20.296875 -14.890625 C 20.078125 -15.140625 19.753906 -15.265625 19.328125 -15.265625 L 15.359375 -15.265625 Z M -0.875 0 C -1.550781 0 -2.113281 -0.179688 -2.5625 -0.546875 C -3.007812 -0.921875 -3.234375 -1.382812 -3.234375 -1.9375 C -3.234375 -2.457031 -3.007812 -2.898438 -2.5625 -3.265625 C -2.113281 -3.640625 -1.550781 -3.828125 -0.875 -3.828125 L 30.90625 -3.828125 C 30.90625 -4.722656 30.519531 -5.578125 29.75 -6.390625 C 28.988281 -7.203125 27.960938 -7.609375 26.671875 -7.609375 C 26.671875 -9.179688 26.953125 -10.242188 27.515625 -10.796875 C 28.085938 -11.347656 28.816406 -11.460938 29.703125 -11.140625 C 30.597656 -10.816406 31.492188 -10.117188 32.390625 -9.046875 C 33.648438 -7.628906 34.28125 -5.875 34.28125 -3.78125 L 34.28125 0 Z M -0.875 0 "/></g></g></g><g fill="#0f73d1" fill-opacity="1"><g transform="translate(251.767307, 46.553784)"><g><path d="M 17.765625 -9.21875 L 14.859375 -12.09375 L 17.765625 -15 L 20.671875 -12.09375 Z M -0.875 0 C -1.550781 0 -2.113281 -0.179688 -2.5625 -0.546875 C -3.007812 -0.921875 -3.234375 -1.382812 -3.234375 -1.9375 C -3.234375 -2.457031 -3.007812 -2.898438 -2.5625 -3.265625 C -2.113281 -3.640625 -1.550781 -3.828125 -0.875 -3.828125 L 27.71875 -3.828125 C 27.71875 -4.722656 27.332031 -5.578125 26.5625 -6.390625 C 25.800781 -7.203125 24.773438 -7.609375 23.484375 -7.609375 C 23.484375 -8.535156 23.734375 -9.265625 24.234375 -9.796875 C 24.742188 -10.335938 25.375 -10.644531 26.125 -10.71875 C 26.882812 -10.800781 27.648438 -10.609375 28.421875 -10.140625 C 29.191406 -9.679688 29.828125 -8.925781 30.328125 -7.875 C 30.835938 -6.832031 31.09375 -5.46875 31.09375 -3.78125 L 31.09375 0 Z M -0.875 0 "/></g></g></g><g fill="#0f73d1" fill-opacity="1"><g transform="translate(282.852748, 46.553784)"><g><path d="M 45.71875 7.609375 C 45.71875 6.441406 45.863281 5.582031 46.15625 5.03125 C 46.445312 4.476562 46.800781 4.066406 47.21875 3.796875 C 47.632812 3.535156 48.046875 3.296875 48.453125 3.078125 C 48.867188 2.867188 49.222656 2.539062 49.515625 2.09375 C 49.816406 1.65625 49.96875 0.957031 49.96875 0 L -0.875 0 C -1.550781 0 -2.113281 -0.179688 -2.5625 -0.546875 C -3.007812 -0.921875 -3.234375 -1.382812 -3.234375 -1.9375 C -3.234375 -2.457031 -3.007812 -2.898438 -2.5625 -3.265625 C -2.113281 -3.640625 -1.550781 -3.828125 -0.875 -3.828125 L 49.96875 -3.828125 C 49.96875 -4.753906 49.585938 -5.613281 48.828125 -6.40625 C 48.078125 -7.207031 47.039062 -7.609375 45.71875 -7.609375 L 11.390625 -7.609375 L 11.390625 -11.484375 C 11.390625 -13.023438 11.734375 -14.363281 12.421875 -15.5 C 13.117188 -16.632812 14.046875 -17.515625 15.203125 -18.140625 C 16.359375 -18.773438 17.625 -19.09375 19 -19.09375 L 36.484375 -19.09375 C 37.691406 -19.09375 38.554688 -19.285156 39.078125 -19.671875 C 39.597656 -20.054688 39.925781 -20.539062 40.0625 -21.125 C 40.207031 -21.707031 40.28125 -22.289062 40.28125 -22.875 C 41.226562 -22.875 41.96875 -22.617188 42.5 -22.109375 C 43.039062 -21.609375 43.347656 -20.976562 43.421875 -20.21875 C 43.503906 -19.46875 43.316406 -18.707031 42.859375 -17.9375 C 42.398438 -17.175781 41.644531 -16.539062 40.59375 -16.03125 C 39.550781 -15.519531 38.179688 -15.265625 36.484375 -15.265625 L 18.125 -15.265625 C 17.207031 -15.265625 16.335938 -14.957031 15.515625 -14.34375 C 14.703125 -13.726562 14.296875 -12.773438 14.296875 -11.484375 L 45.71875 -11.484375 C 47.257812 -11.484375 48.601562 -11.144531 49.75 -10.46875 C 50.90625 -9.789062 51.796875 -8.875 52.421875 -7.71875 C 53.054688 -6.570312 53.375 -5.273438 53.375 -3.828125 L 53.375 0 C 53.375 1.445312 53.054688 2.742188 52.421875 3.890625 C 51.796875 5.046875 50.90625 5.953125 49.75 6.609375 C 48.601562 7.273438 47.257812 7.609375 45.71875 7.609375 Z M 45.71875 7.609375 "/></g></g></g><g fill="#0f73d1" fill-opacity="1"><g transform="translate(338.151621, 46.553784)"><g/></g></g><g fill="#0f73d1" fill-opacity="1"><g transform="translate(345.899917, 46.553784)"><g><path d="M 7.65625 0 C 5.875 -0.0625 4.472656 -0.640625 3.453125 -1.734375 C 2.441406 -2.828125 1.9375 -4.171875 1.9375 -5.765625 C 1.9375 -7.421875 2.472656 -8.785156 3.546875 -9.859375 C 4.628906 -10.941406 6.015625 -11.484375 7.703125 -11.484375 L 19.09375 -11.484375 C 19.09375 -10.347656 18.738281 -9.425781 18.03125 -8.71875 C 17.332031 -8.007812 16.425781 -7.65625 15.3125 -7.65625 L 7.65625 -7.65625 C 7.101562 -7.65625 6.648438 -7.46875 6.296875 -7.09375 C 5.941406 -6.726562 5.765625 -6.285156 5.765625 -5.765625 C 5.765625 -5.304688 5.914062 -4.875 6.21875 -4.46875 C 6.53125 -4.070312 7.023438 -3.875 7.703125 -3.875 L 38.15625 -3.875 C 38.15625 -4.769531 37.847656 -5.625 37.234375 -6.4375 C 36.617188 -7.25 35.664062 -7.65625 34.375 -7.65625 L 26.703125 -7.65625 C 26.703125 -8.789062 27.054688 -9.710938 27.765625 -10.421875 C 28.472656 -11.128906 29.382812 -11.484375 30.5 -11.484375 L 41.984375 -11.484375 C 43.515625 -11.484375 44.859375 -11.144531 46.015625 -10.46875 C 47.171875 -9.789062 48.0625 -8.875 48.6875 -7.71875 C 49.320312 -6.570312 49.640625 -5.273438 49.640625 -3.828125 L 50.46875 -3.828125 L 50.46875 0 L 49.546875 0 C 48.441406 0 47.535156 -0.351562 46.828125 -1.0625 C 46.117188 -1.769531 45.765625 -2.675781 45.765625 -3.78125 L 45.765625 -3.875 C 45.765625 -4.769531 45.460938 -5.625 44.859375 -6.4375 C 44.265625 -7.25 43.304688 -7.65625 41.984375 -7.65625 L 41.109375 -7.65625 C 41.691406 -6.425781 41.984375 -5.148438 41.984375 -3.828125 L 41.984375 0 Z M 7.65625 0 "/></g></g></g><g fill="#0f73d1" fill-opacity="1"><g transform="translate(396.356076, 46.553784)"><g><path d="M -0.875 0 C -1.550781 0 -2.113281 -0.179688 -2.5625 -0.546875 C -3.007812 -0.921875 -3.234375 -1.382812 -3.234375 -1.9375 C -3.234375 -2.457031 -3.007812 -2.898438 -2.5625 -3.265625 C -2.113281 -3.640625 -1.550781 -3.828125 -0.875 -3.828125 L 27.71875 -3.828125 C 27.71875 -4.722656 27.332031 -5.578125 26.5625 -6.390625 C 25.800781 -7.203125 24.773438 -7.609375 23.484375 -7.609375 C 23.484375 -9.148438 23.703125 -10.203125 24.140625 -10.765625 C 24.585938 -11.335938 25.414062 -11.378906 26.625 -10.890625 C 28.0625 -10.304688 29.164062 -9.367188 29.9375 -8.078125 C 30.707031 -6.785156 31.09375 -5.351562 31.09375 -3.78125 L 31.09375 0 Z M 14.03125 8.578125 L 11.171875 5.71875 L 14.03125 2.8125 L 16.9375 5.71875 Z M 21.6875 8.578125 L 18.78125 5.71875 L 21.6875 2.8125 L 24.546875 5.71875 Z M 17.859375 12.40625 L 14.953125 9.5 L 17.859375 6.59375 L 20.765625 9.5 Z M 17.859375 12.40625 "/></g></g></g><g fill="#0f73d1" fill-opacity="1"><g transform="translate(429.378603, 46.553784)"><g/></g></g><g fill="#0f73d1" fill-opacity="1"><g transform="translate(437.1269, 46.553784)"><g><path d="M 7.65625 0 C 5.875 -0.0625 4.472656 -0.640625 3.453125 -1.734375 C 2.441406 -2.828125 1.9375 -4.171875 1.9375 -5.765625 C 1.9375 -7.421875 2.472656 -8.785156 3.546875 -9.859375 C 4.628906 -10.941406 6.015625 -11.484375 7.703125 -11.484375 L 19.09375 -11.484375 C 19.09375 -10.347656 18.738281 -9.425781 18.03125 -8.71875 C 17.332031 -8.007812 16.425781 -7.65625 15.3125 -7.65625 L 7.65625 -7.65625 C 7.101562 -7.65625 6.648438 -7.46875 6.296875 -7.09375 C 5.941406 -6.726562 5.765625 -6.285156 5.765625 -5.765625 C 5.765625 -5.304688 5.914062 -4.875 6.21875 -4.46875 C 6.53125 -4.070312 7.023438 -3.875 7.703125 -3.875 L 38.15625 -3.875 C 38.15625 -4.769531 37.847656 -5.625 37.234375 -6.4375 C 36.617188 -7.25 35.664062 -7.65625 34.375 -7.65625 L 26.703125 -7.65625 L 26.703125 -7.703125 C 26.703125 -8.804688 27.054688 -9.710938 27.765625 -10.421875 C 28.472656 -11.128906 29.382812 -11.484375 30.5 -11.484375 L 41.984375 -11.484375 C 43.515625 -11.484375 44.859375 -11.144531 46.015625 -10.46875 C 47.171875 -9.789062 48.0625 -8.875 48.6875 -7.71875 C 49.320312 -6.570312 49.640625 -5.273438 49.640625 -3.828125 L 49.640625 -3.78125 C 49.640625 -2.675781 49.285156 -1.769531 48.578125 -1.0625 C 47.867188 -0.351562 46.960938 0 45.859375 0 L 45.765625 0 L 45.765625 -3.875 C 45.765625 -5.226562 45.347656 -6.195312 44.515625 -6.78125 C 43.679688 -7.363281 42.546875 -7.65625 41.109375 -7.65625 C 41.691406 -6.425781 41.984375 -5.148438 41.984375 -3.828125 L 41.984375 0 Z M 7.65625 0 "/></g></g></g><g fill="#0f73d1" fill-opacity="1"><g transform="translate(488.689985, 46.553784)"><g><path d="M 1.9375 0 L 1.9375 -15.3125 C 1.9375 -16.425781 2.289062 -17.332031 3 -18.03125 C 3.707031 -18.738281 4.613281 -19.09375 5.71875 -19.09375 L 5.765625 -19.09375 L 5.765625 -3.78125 C 5.765625 -2.675781 5.410156 -1.769531 4.703125 -1.0625 C 3.992188 -0.351562 3.085938 0 1.984375 0 Z M 1.9375 0 "/></g></g></g><g fill="#0f73d1" fill-opacity="1"><g transform="translate(496.392153, 46.553784)"><g/></g></g><g fill="#0f73d1" fill-opacity="1"><g transform="translate(504.14045, 46.553784)"><g><path d="M 5.765625 3.828125 C 4.722656 3.828125 3.835938 3.507812 3.109375 2.875 C 2.390625 2.25 2.179688 1.519531 2.484375 0.6875 C 3.078125 -0.726562 4.019531 -1.832031 5.3125 -2.625 C 6.601562 -3.425781 8.015625 -3.828125 9.546875 -3.828125 L 24.8125 -3.828125 L 24.765625 -11.4375 L 36.265625 -11.4375 C 37.796875 -11.4375 39.140625 -11.097656 40.296875 -10.421875 C 41.453125 -9.742188 42.34375 -8.828125 42.96875 -7.671875 C 43.601562 -6.523438 43.921875 -5.226562 43.921875 -3.78125 L 43.921875 0 L 28.65625 0 L 28.65625 3.828125 C 27.695312 3.828125 26.816406 3.472656 26.015625 2.765625 C 25.210938 2.054688 24.8125 1.148438 24.8125 0.046875 L 24.8125 0 L 9.59375 0 C 8.675781 0 7.804688 0.304688 6.984375 0.921875 C 6.171875 1.535156 5.765625 2.503906 5.765625 3.828125 Z M 28.65625 -3.828125 L 40.046875 -3.828125 C 40.046875 -4.722656 39.742188 -5.578125 39.140625 -6.390625 C 38.546875 -7.203125 37.585938 -7.609375 36.265625 -7.609375 L 28.65625 -7.609375 Z M 28.65625 -3.828125 "/></g></g></g><g fill="#0f73d1" fill-opacity="1"><g transform="translate(548.047494, 46.553784)"><g><path d="M -0.875 0 C -1.550781 0 -2.113281 -0.179688 -2.5625 -0.546875 C -3.007812 -0.921875 -3.234375 -1.382812 -3.234375 -1.9375 C -3.234375 -2.457031 -3.007812 -2.898438 -2.5625 -3.265625 C -2.113281 -3.640625 -1.550781 -3.828125 -0.875 -3.828125 L 27.71875 -3.828125 C 27.71875 -4.722656 27.332031 -5.578125 26.5625 -6.390625 C 25.800781 -7.203125 24.773438 -7.609375 23.484375 -7.609375 C 23.484375 -8.597656 23.734375 -9.367188 24.234375 -9.921875 C 24.742188 -10.472656 25.375 -10.796875 26.125 -10.890625 C 26.882812 -10.984375 27.648438 -10.789062 28.421875 -10.3125 C 29.191406 -9.832031 29.828125 -9.0625 30.328125 -8 C 30.835938 -6.9375 31.09375 -5.53125 31.09375 -3.78125 L 31.09375 0 Z M 13.984375 8.578125 L 11.078125 5.671875 L 13.984375 2.8125 L 16.84375 5.671875 Z M 21.59375 8.578125 L 18.6875 5.671875 L 21.59375 2.8125 L 24.5 5.671875 Z M 21.59375 8.578125 "/></g></g></g><g fill="#0f73d1" fill-opacity="1"><g transform="translate(581.070021, 46.553784)"><g><path d="M 1.9375 0 L 1.9375 -15.3125 C 1.9375 -16.425781 2.289062 -17.332031 3 -18.03125 C 3.707031 -18.738281 4.613281 -19.09375 5.71875 -19.09375 L 5.765625 -19.09375 L 5.765625 -3.78125 C 5.765625 -2.675781 5.410156 -1.769531 4.703125 -1.0625 C 3.992188 -0.351562 3.085938 0 1.984375 0 Z M 1.9375 0 "/></g></g></g><g fill="#0f73d1" fill-opacity="1"><g transform="translate(588.77219, 46.553784)"><g/></g></g><g fill="#0f73d1" fill-opacity="1"><g transform="translate(596.520486, 46.553784)"><g><path d="M 7.65625 0 C 5.875 -0.0625 4.472656 -0.640625 3.453125 -1.734375 C 2.441406 -2.828125 1.9375 -4.171875 1.9375 -5.765625 C 1.9375 -7.421875 2.472656 -8.785156 3.546875 -9.859375 C 4.628906 -10.941406 6.015625 -11.484375 7.703125 -11.484375 L 19.09375 -11.484375 C 19.09375 -10.347656 18.738281 -9.425781 18.03125 -8.71875 C 17.332031 -8.007812 16.425781 -7.65625 15.3125 -7.65625 L 7.65625 -7.65625 C 7.101562 -7.65625 6.648438 -7.46875 6.296875 -7.09375 C 5.941406 -6.726562 5.765625 -6.285156 5.765625 -5.765625 C 5.765625 -5.304688 5.914062 -4.875 6.21875 -4.46875 C 6.53125 -4.070312 7.023438 -3.875 7.703125 -3.875 L 38.15625 -3.875 C 38.15625 -4.769531 37.847656 -5.625 37.234375 -6.4375 C 36.617188 -7.25 35.664062 -7.65625 34.375 -7.65625 L 26.703125 -7.65625 C 26.703125 -8.789062 27.054688 -9.710938 27.765625 -10.421875 C 28.472656 -11.128906 29.382812 -11.484375 30.5 -11.484375 L 41.984375 -11.484375 C 43.515625 -11.484375 44.859375 -11.144531 46.015625 -10.46875 C 47.171875 -9.789062 48.0625 -8.875 48.6875 -7.71875 C 49.320312 -6.570312 49.640625 -5.273438 49.640625 -3.828125 L 50.46875 -3.828125 L 50.46875 0 L 49.546875 0 C 48.441406 0 47.535156 -0.351562 46.828125 -1.0625 C 46.117188 -1.769531 45.765625 -2.675781 45.765625 -3.78125 L 45.765625 -3.875 C 45.765625 -4.769531 45.460938 -5.625 44.859375 -6.4375 C 44.265625 -7.25 43.304688 -7.65625 41.984375 -7.65625 L 41.109375 -7.65625 C 41.691406 -6.425781 41.984375 -5.148438 41.984375 -3.828125 L 41.984375 0 Z M 7.65625 0 "/></g></g></g><g fill="#0f73d1" fill-opacity="1"><g transform="translate(646.976645, 46.553784)"><g><path d="M -0.875 0 C -1.550781 0 -2.113281 -0.179688 -2.5625 -0.546875 C -3.007812 -0.921875 -3.234375 -1.382812 -3.234375 -1.9375 C -3.234375 -2.457031 -3.007812 -2.898438 -2.5625 -3.265625 C -2.113281 -3.640625 -1.550781 -3.828125 -0.875 -3.828125 L 11.390625 -3.828125 L 11.390625 -15.3125 C 11.390625 -16.425781 11.742188 -17.332031 12.453125 -18.03125 C 13.160156 -18.738281 14.082031 -19.09375 15.21875 -19.09375 L 15.21875 0 Z M -0.875 0 "/></g></g></g><g fill="#0f73d1" fill-opacity="1"><g transform="translate(662.196565, 46.553784)"><g><path d="M -0.875 0 C -1.550781 0 -2.113281 -0.179688 -2.5625 -0.546875 C -3.007812 -0.921875 -3.234375 -1.382812 -3.234375 -1.9375 C -3.234375 -2.457031 -3.007812 -2.898438 -2.5625 -3.265625 C -2.113281 -3.640625 -1.550781 -3.828125 -0.875 -3.828125 L 26.671875 -3.828125 C 26.671875 -5.148438 26.257812 -6.109375 25.4375 -6.703125 C 24.625 -7.304688 23.769531 -7.609375 22.875 -7.609375 L 15.171875 -7.609375 C 14.066406 -7.609375 13.160156 -7.960938 12.453125 -8.671875 C 11.742188 -9.378906 11.390625 -10.285156 11.390625 -11.390625 L 45.765625 -11.484375 C 45.765625 -10.347656 45.410156 -9.414062 44.703125 -8.6875 C 43.992188 -7.96875 43.085938 -7.609375 41.984375 -7.609375 L 34.328125 -7.609375 C 33.003906 -7.609375 32.035156 -7.207031 31.421875 -6.40625 C 30.804688 -5.613281 30.5 -4.753906 30.5 -3.828125 L 45.765625 -3.828125 L 45.765625 0 Z M -0.875 0 "/></g></g></g><g fill="#0f73d1" fill-opacity="1"><g transform="translate(707.948393, 46.553784)"><g><path d="M -0.828125 0 C -1.503906 0 -2.066406 -0.179688 -2.515625 -0.546875 C -2.960938 -0.921875 -3.1875 -1.382812 -3.1875 -1.9375 C -3.1875 -2.457031 -2.960938 -2.898438 -2.515625 -3.265625 C -2.066406 -3.640625 -1.503906 -3.828125 -0.828125 -3.828125 L 7.609375 -3.828125 C 8.898438 -3.828125 9.851562 -4.234375 10.46875 -5.046875 C 11.082031 -5.867188 11.390625 -6.738281 11.390625 -7.65625 L 11.390625 -15.3125 C 11.390625 -16.425781 11.742188 -17.332031 12.453125 -18.03125 C 13.160156 -18.738281 14.082031 -19.09375 15.21875 -19.09375 L 15.21875 -7.609375 C 15.21875 -6.160156 14.894531 -4.859375 14.25 -3.703125 C 13.601562 -2.554688 12.710938 -1.648438 11.578125 -0.984375 C 10.441406 -0.328125 9.117188 0 7.609375 0 Z M -0.828125 0 "/></g></g></g><g fill="#0f73d1" fill-opacity="1"><g transform="translate(725.105351, 46.553784)"><g><path d="M 1.9375 0 L 1.9375 -15.3125 C 1.9375 -16.425781 2.289062 -17.332031 3 -18.03125 C 3.707031 -18.738281 4.613281 -19.09375 5.71875 -19.09375 L 5.765625 -19.09375 L 5.765625 -3.78125 C 5.765625 -2.675781 5.410156 -1.769531 4.703125 -1.0625 C 3.992188 -0.351562 3.085938 0 1.984375 0 Z M 1.9375 0 "/></g></g></g></g></g></svg>